<svg width="170" height="77" viewBox="0 0 170 77" fill="none" xmlns="http://www.w3.org/2000/svg">
<path d="M87.5 0L140 57L86 14L38.5696 59.25L87.5 0Z" fill="#FFFDFD"/>
<path d="M106.674 16L152 72L106.674 30.6498L72 54.2785L88.211 33.4852L106.674 16Z" fill="#FFFDFD"/>
<path d="M39.5 31L56.5 40L0.5 70L39.5 31Z" fill="#FFFDFD"/>
<path d="M67 14H86L35 61.5L67 14Z" fill="#FFFDFD"/>
<path d="M110 32.0001L129 32.0002L169.5 72.5001L110 32.0001Z" fill="#FFFDFD"/>
<path d="M87 15L87 26L81 30L90.5 38.4999L102.5 26L87 15Z" fill="#FFFDFD"/>
<path d="M118.919 43.2229L124.168 39.395L129.541 32.9338L116.694 34.4346L107.266 50.0052L118.919 43.2229Z" fill="#FFFDFD"/>
</svg>
