<svg width="18" height="18" viewBox="0 0 18 18" fill="none" xmlns="http://www.w3.org/2000/svg">
<path d="M15.1765 1.64697H13.7059V3.11756C13.7059 3.41168 13.4608 3.60776 13.2157 3.60776C12.9706 3.60776 12.7255 3.41168 12.7255 3.11756V1.64697H4.88235V3.11756C4.88235 3.41168 4.63725 3.60776 4.39215 3.60776C4.14706 3.60776 3.90196 3.41168 3.90196 3.11756V1.64697H2.43137C1.69608 1.64697 1.15686 2.28423 1.15686 3.11756V4.88227H16.8431V3.11756C16.8431 2.28423 15.9608 1.64697 15.1765 1.64697ZM1.15686 5.91168V14.8823C1.15686 15.7646 1.69608 16.3529 2.48039 16.3529H15.2255C16.0098 16.3529 16.8922 15.7156 16.8922 14.8823V5.91168H1.15686ZM5.51961 14.147H4.34314C4.14706 14.147 3.95098 13.9999 3.95098 13.7548V12.5293C3.95098 12.3332 4.09804 12.1372 4.34314 12.1372H5.56863C5.7647 12.1372 5.96078 12.2842 5.96078 12.5293V13.7548C5.91176 13.9999 5.7647 14.147 5.51961 14.147ZM5.51961 9.73521H4.34314C4.14706 9.73521 3.95098 9.58815 3.95098 9.34305V8.11756C3.95098 7.92148 4.09804 7.7254 4.34314 7.7254H5.56863C5.7647 7.7254 5.96078 7.87246 5.96078 8.11756V9.34305C5.91176 9.58815 5.7647 9.73521 5.51961 9.73521ZM9.44117 14.147H8.21568C8.01961 14.147 7.82353 13.9999 7.82353 13.7548V12.5293C7.82353 12.3332 7.97059 12.1372 8.21568 12.1372H9.44117C9.63725 12.1372 9.83333 12.2842 9.83333 12.5293V13.7548C9.83333 13.9999 9.68627 14.147 9.44117 14.147ZM9.44117 9.73521H8.21568C8.01961 9.73521 7.82353 9.58815 7.82353 9.34305V8.11756C7.82353 7.92148 7.97059 7.7254 8.21568 7.7254H9.44117C9.63725 7.7254 9.83333 7.87246 9.83333 8.11756V9.34305C9.83333 9.58815 9.68627 9.73521 9.44117 9.73521ZM13.3627 14.147H12.1373C11.9412 14.147 11.7451 13.9999 11.7451 13.7548V12.5293C11.7451 12.3332 11.8922 12.1372 12.1373 12.1372H13.3627C13.5588 12.1372 13.7549 12.2842 13.7549 12.5293V13.7548C13.7549 13.9999 13.6078 14.147 13.3627 14.147ZM13.3627 9.73521H12.1373C11.9412 9.73521 11.7451 9.58815 11.7451 9.34305V8.11756C11.7451 7.92148 11.8922 7.7254 12.1373 7.7254H13.3627C13.5588 7.7254 13.7549 7.87246 13.7549 8.11756V9.34305C13.7549 9.58815 13.6078 9.73521 13.3627 9.73521Z" fill="black"/>
</svg>
