<svg width="18" height="18" viewBox="0 0 18 18" fill="none" xmlns="http://www.w3.org/2000/svg">
<path d="M1.4203 5.88054V2.44304C1.4203 2.06334 1.11249 1.75554 0.732796 1.75554C0.3531 1.75554 0.0452957 2.06334 0.0452957 2.44304V6.56804C0.0452957 6.94773 0.3531 7.25554 0.732796 7.25554H4.8578C5.23749 7.25554 5.5453 6.94773 5.5453 6.56804C5.5453 6.18834 5.23749 5.88054 4.8578 5.88054H1.4203Z" fill="#848688"/>
<path d="M3.16925 3.16801L0.247376 6.08129C0.118256 6.21003 0.0455652 6.38479 0.0452965 6.56713L0.0452957 6.56804C0.0452957 6.57871 0.0455444 6.58949 0.0460414 6.60016C0.0540001 6.77088 0.125267 6.93253 0.245944 7.05356C0.374933 7.18293 0.550108 7.25554 0.732796 7.25554C0.74432 7.25554 0.755844 7.25535 0.767357 7.25477C0.937177 7.24623 1.09781 7.17505 1.21821 7.05499L4.14009 4.14171C5.10715 3.17324 6.37001 2.64961 6.37001 2.64961C7.63287 2.12598 8.99998 2.12598 8.99998 2.12598C10.3671 2.12598 11.63 2.64961 11.63 2.64961C12.8928 3.17324 13.8588 4.14064 13.8588 4.14064C13.9878 4.26979 14.1628 4.34236 14.3453 4.34236C14.357 4.34236 14.3687 4.34206 14.3804 4.34147C14.5502 4.33279 14.7108 4.2615 14.8311 4.14135C14.9602 4.01239 15.0328 3.83737 15.0328 3.65486C15.0328 3.64317 15.0325 3.63147 15.0319 3.61979C15.0232 3.44998 14.9519 3.2894 14.8318 3.16908C13.6724 2.00796 12.1566 1.37947 12.1566 1.37947C10.6409 0.750977 8.99998 0.750977 8.99998 0.750977C7.3591 0.750976 5.84336 1.37947 5.84336 1.37947C4.32761 2.00796 3.16925 3.16801 3.16925 3.16801Z" fill="#848688"/>
<path d="M16.5797 12.1197V15.5572C16.5797 15.9369 16.8875 16.2447 17.2672 16.2447C17.6469 16.2447 17.9547 15.9369 17.9547 15.5572V11.4322C17.9547 11.0525 17.6469 10.7447 17.2672 10.7447H13.1422C12.7625 10.7447 12.4547 11.0525 12.4547 11.4322C12.4547 11.8119 12.7625 12.1197 13.1422 12.1197H16.5797Z" fill="#848688"/>
<path d="M17.7533 11.9184C17.8822 11.7894 17.9547 11.6146 17.9547 11.4322C17.9547 11.2502 17.8825 11.0757 17.754 10.9468L17.7533 10.9461C17.6246 10.8174 17.4502 10.745 17.2682 10.7447L17.2672 10.7447C17.0852 10.7447 16.9106 10.8169 16.7818 10.9454L13.8599 13.8587C12.8928 14.8271 11.63 15.3508 11.63 15.3508C10.3671 15.8744 8.99998 15.8744 8.99998 15.8744C7.63287 15.8744 6.37001 15.3508 6.37001 15.3508C5.10715 14.8271 4.14116 13.8597 4.14116 13.8597C4.01232 13.7307 3.83751 13.6581 3.65517 13.658C3.64433 13.658 3.63298 13.6583 3.62215 13.6588C3.45142 13.6669 3.28983 13.7383 3.16889 13.859C3.03974 13.988 2.96717 14.163 2.96717 14.3455C2.96717 14.3572 2.96747 14.3689 2.96807 14.3806C2.97674 14.5504 3.04804 14.711 3.16818 14.8313C4.32761 15.9924 5.84336 16.6209 5.84336 16.6209C7.3591 17.2494 8.99998 17.2494 8.99998 17.2494C10.6409 17.2494 12.1566 16.6209 12.1566 16.6209C13.6724 15.9924 14.8307 14.8324 14.8307 14.8324L17.7533 11.9184Z" fill="#848688"/>
</svg>
