<svg width="24" height="24" viewBox="0 0 24 24" fill="none" xmlns="http://www.w3.org/2000/svg">
<path fill-rule="evenodd" clip-rule="evenodd" d="M8.8181 1.27239C8.87759 1.25752 8.93868 1.25 9 1.25H15C15.0613 1.25 15.1224 1.25752 15.1819 1.27239L15 2C15.1819 1.27239 15.1818 1.27236 15.1819 1.27239L15.1857 1.27334L15.1937 1.27539L15.2225 1.28278C15.2471 1.28917 15.2824 1.29847 15.3274 1.31062C15.4173 1.3349 15.5459 1.37064 15.7043 1.41734C16.0206 1.5106 16.4583 1.64839 16.9457 1.82709C17.8976 2.17614 19.1257 2.71178 19.9801 3.42383C21.585 4.76119 22.75 6.70366 22.75 8.5V18.5C22.75 18.9142 22.4142 19.25 22 19.25H18.5C18.0858 19.25 17.75 18.9142 17.75 18.5C17.75 18.0858 18.0858 17.75 18.5 17.75H21.25V8.5C21.25 7.29634 20.415 5.73881 19.0199 4.57617C18.3743 4.03822 17.3524 3.57386 16.4293 3.23541C15.9792 3.07036 15.5732 2.94253 15.2801 2.8561C15.1338 2.81296 15.0163 2.78033 14.9363 2.75872C14.9246 2.75558 14.9138 2.75267 14.9038 2.75H9.09621C9.0862 2.75267 9.07537 2.75558 9.06374 2.75872C8.98373 2.78033 8.86623 2.81296 8.71994 2.8561C8.42682 2.94253 8.02083 3.07036 7.57069 3.23541C6.64765 3.57386 5.62567 4.03822 4.98014 4.57617C3.58497 5.73881 2.75 7.29634 2.75 8.5V17.75H5.5C5.91421 17.75 6.25 18.0858 6.25 18.5C6.25 18.9142 5.91421 19.25 5.5 19.25H2C1.58579 19.25 1.25 18.9142 1.25 18.5V8.5C1.25 6.70366 2.41503 4.76119 4.01986 3.42383C4.87433 2.71178 6.10235 2.17614 7.05431 1.82709C7.54167 1.64839 7.97943 1.5106 8.29569 1.41734C8.45408 1.37064 8.58268 1.3349 8.67259 1.31062C8.71756 1.29847 8.7529 1.28917 8.77751 1.28278L8.80626 1.27539L8.81434 1.27334L8.8181 1.27239C8.81822 1.27236 8.8181 1.27239 9 2L8.8181 1.27239Z" fill="#1C1B1E"/>
<path fill-rule="evenodd" clip-rule="evenodd" d="M5.5 7.75C5.91421 7.75 6.25 8.08579 6.25 8.5V21.25H17.75V8.5C17.75 8.08579 18.0858 7.75 18.5 7.75C18.9142 7.75 19.25 8.08579 19.25 8.5V22C19.25 22.4142 18.9142 22.75 18.5 22.75H5.5C5.08579 22.75 4.75 22.4142 4.75 22V8.5C4.75 8.08579 5.08579 7.75 5.5 7.75Z" fill="#1C1B1E"/>
<path fill-rule="evenodd" clip-rule="evenodd" d="M9 1.25C9.41421 1.25 9.75 1.58579 9.75 2C9.75 3.24264 10.7574 4.25 12 4.25C13.2426 4.25 14.25 3.24264 14.25 2C14.25 1.58579 14.5858 1.25 15 1.25C15.4142 1.25 15.75 1.58579 15.75 2C15.75 4.07107 14.0711 5.75 12 5.75C9.92894 5.75 8.25 4.07107 8.25 2C8.25 1.58579 8.58579 1.25 9 1.25Z" fill="#1C1B1E"/>
</svg>
