<svg width="23" height="14" viewBox="0 0 23 14" fill="none" xmlns="http://www.w3.org/2000/svg">
<path fill-rule="evenodd" clip-rule="evenodd" d="M8.625 0.125C8.625 0.125 11.7564 0.125 14.0023 1.00381C14.0023 1.00381 15.1277 1.4442 15.7714 2.0397C15.7714 2.0397 16.5312 2.74268 16.5312 3.5625C16.5312 3.5625 16.5312 4.38232 15.7714 5.0853C15.7714 5.0853 15.1277 5.6808 14.0023 6.12119C14.0023 6.12119 11.7564 7 8.625 7C8.625 7 5.49357 7 3.24772 6.12119C3.24772 6.12119 2.12229 5.6808 1.47861 5.0853C1.47861 5.0853 0.71875 4.38232 0.71875 3.5625C0.71875 3.5625 0.71875 2.74268 1.47861 2.0397C1.47861 2.0397 2.12229 1.4442 3.24772 1.00381C3.24772 1.00381 5.49357 0.125 8.625 0.125ZM8.625 1.375C8.625 1.375 5.80211 1.375 3.83762 2.14371C3.83762 2.14371 2.97349 2.48185 2.52605 2.8958C2.52605 2.8958 2.15625 3.23792 2.15625 3.5625C2.15625 3.5625 2.15625 3.88708 2.52605 4.2292C2.52605 4.2292 2.97349 4.64315 3.83762 4.98129C3.83762 4.98129 5.80211 5.75 8.625 5.75C8.625 5.75 11.4479 5.75 13.4124 4.98129C13.4124 4.98129 14.2765 4.64315 14.7239 4.2292C14.7239 4.2292 15.0938 3.88708 15.0938 3.5625C15.0938 3.5625 15.0938 3.23792 14.7239 2.8958C14.7239 2.8958 14.2765 2.48185 13.4124 2.14371C13.4124 2.14371 11.4479 1.375 8.625 1.375Z" fill="#FBBC05"/>
<path d="M16.5312 6.6875V3.5625C16.5312 3.21732 16.2095 2.9375 15.8125 2.9375C15.4155 2.9375 15.0938 3.21732 15.0938 3.5625V6.6875C15.0938 7.01269 14.724 7.35491 14.724 7.35491C14.2769 7.76882 13.413 8.10679 13.413 8.10679C11.4494 8.875 8.625 8.875 8.625 8.875C5.80057 8.875 3.83699 8.10679 3.83699 8.10679C2.97313 7.76882 2.52596 7.35491 2.52596 7.35491C2.15625 7.01269 2.15625 6.6875 2.15625 6.6875V3.5625C2.15625 3.21732 1.83446 2.9375 1.4375 2.9375C1.04055 2.9375 0.71875 3.21732 0.71875 3.5625V6.6875C0.71875 7.50774 1.47826 8.21077 1.47826 8.21077C2.12179 8.80644 3.24719 9.24673 3.24719 9.24673C5.49209 10.125 8.625 10.125 8.625 10.125C11.7579 10.125 14.0028 9.24673 14.0028 9.24673C15.1282 8.80644 15.7717 8.21077 15.7717 8.21077C16.5312 7.50774 16.5312 6.6875 16.5312 6.6875Z" fill="#FBBC05"/>
<path d="M5.03125 6.14062V9.26562C5.03125 9.6108 5.35305 9.89062 5.75 9.89062C6.14695 9.89062 6.46875 9.6108 6.46875 9.26562V6.14062C6.46875 5.79545 6.14695 5.51562 5.75 5.51562C5.35305 5.51562 5.03125 5.79545 5.03125 6.14062Z" fill="#FBBC05"/>
<path d="M15.8812 3.93256C18.5097 4.14574 20.2608 4.97449 20.2608 4.97449C22.2812 5.9307 22.2812 7.31252 22.2812 7.31252C22.2812 8.13275 21.5217 8.83578 21.5217 8.83578C20.8782 9.43145 19.7528 9.87174 19.7528 9.87174C17.5079 10.75 14.375 10.75 14.375 10.75C11.6368 10.75 9.49841 10.0549 9.49841 10.0549C9.49744 10.0545 9.49646 10.0542 9.49646 10.0542C9.31792 9.99615 9.17297 9.87869 9.09396 9.72784C9.05483 9.65315 9.03301 9.57249 9.02973 9.49046C9.02944 9.48323 9.0293 9.476 9.0293 9.46877C9.0293 9.39399 9.04473 9.31981 9.07486 9.24978C9.17817 9.00965 9.43963 8.84874 9.73441 8.84388L9.74805 8.84377C9.83404 8.84377 9.91934 8.85719 9.99989 8.88339C11.8954 9.50002 14.375 9.50002 14.375 9.50002C17.1994 9.50002 19.163 8.7318 19.163 8.7318C20.0269 8.39384 20.474 7.97992 20.474 7.97992C20.8438 7.6377 20.8438 7.31252 20.8438 7.31252C20.8438 6.67352 19.5736 6.07241 19.5736 6.07241C18.0814 5.36619 15.7458 5.17701 15.7458 5.17701C15.3763 5.14708 15.0938 4.87742 15.0938 4.5547C15.0938 4.53595 15.0947 4.51722 15.0967 4.49854L15.0968 4.49673C15.1124 4.35163 15.1858 4.21581 15.3043 4.11276C15.32 4.09908 15.3365 4.08603 15.3536 4.07368C15.4826 3.98063 15.6449 3.9297 15.8125 3.9297C15.8341 3.9297 15.8556 3.93055 15.8771 3.93223L15.8792 3.9324L15.8812 3.93256Z" fill="#FBBC05"/>
<path d="M22.2812 10.4375V7.31252C22.2812 6.96734 21.9595 6.6875 21.5625 6.6875C21.1655 6.6875 20.8438 6.96734 20.8438 7.31252V10.4375C20.8438 10.7627 20.474 11.1049 20.474 11.1049C20.0269 11.5188 19.163 11.8568 19.163 11.8568C17.1994 12.625 14.375 12.625 14.375 12.625C11.5506 12.625 9.58699 11.8568 9.58699 11.8568C8.72313 11.5188 8.27596 11.1049 8.27596 11.1049C7.90625 10.7627 7.90625 10.4375 7.90625 10.4375L7.90625 9.44531C7.90625 9.10013 7.58446 8.82031 7.1875 8.82031C6.79055 8.82031 6.46875 9.10013 6.46875 9.44531L6.46875 10.4375C6.46875 11.2577 7.22826 11.9608 7.22826 11.9608C7.87179 12.5564 8.99719 12.9967 8.99719 12.9967C11.2421 13.875 14.375 13.875 14.375 13.875C17.5079 13.875 19.7528 12.9967 19.7528 12.9967C20.8782 12.5564 21.5217 11.9608 21.5217 11.9608C22.2812 11.2577 22.2812 10.4375 22.2812 10.4375Z" fill="#FBBC05"/>
<path d="M16.5312 9.89062V13.0156C16.5312 13.3608 16.853 13.6406 17.25 13.6406C17.647 13.6406 17.9688 13.3608 17.9688 13.0156V9.89062C17.9688 9.54545 17.647 9.26562 17.25 9.26562C16.853 9.26562 16.5312 9.54545 16.5312 9.89062Z" fill="#FBBC05"/>
<path d="M10.7812 6.14062V13.0156C10.7812 13.3608 11.103 13.6406 11.5 13.6406C11.897 13.6406 12.2188 13.3608 12.2188 13.0156V6.14062C12.2188 5.79545 11.897 5.51562 11.5 5.51562C11.103 5.51562 10.7812 5.79545 10.7812 6.14062Z" fill="#FBBC05"/>
</svg>
