<svg width="25" height="25" viewBox="0 0 25 25" fill="none" xmlns="http://www.w3.org/2000/svg">
<path fill-rule="evenodd" clip-rule="evenodd" d="M2 24.9999H7.58586L7.5875 24.9999C7.5875 24.9999 7.98149 25.0006 8.34606 24.8509C8.34606 24.8509 8.71225 24.7005 8.99286 24.4212L23.9946 9.4195C23.9946 9.4195 24.2755 9.14295 24.4306 8.77232C24.4306 8.77232 24.5858 8.40169 24.5858 7.99989C24.5858 7.99989 24.5858 7.59809 24.4306 7.22746C24.4306 7.22746 24.2755 6.85683 23.9892 6.57489L18.4196 1.00528C18.4196 1.00528 18.1431 0.724431 17.7724 0.569248C17.7724 0.569248 17.4018 0.414062 17 0.414062C17 0.414062 16.5982 0.414062 16.2276 0.569246C16.2276 0.569246 15.8569 0.724431 15.575 1.01072L0.580397 16.0053C0.580397 16.0053 0.299421 16.2876 0.149021 16.6538C0.149021 16.6538 -0.00137846 17.02 9.54856e-06 17.4159L3.40928e-06 22.9999C3.40928e-06 22.9999 3.39746e-06 23.8283 0.58579 24.4141C0.58579 24.4141 1.17158 24.9999 2 24.9999ZM22.5804 8.00528L7.5858 22.9999H2L2 17.4141L17 2.41406L17.0054 2.4195L22.5858 7.99989L22.5804 8.00528Z" fill="#1C1C1C"/>
<path d="M19.2924 12.7066C19.4799 12.8941 19.7348 13 20 13C20.2652 13 20.5196 12.8946 20.7071 12.7071C20.8946 12.5196 21 12.2652 21 12C21 11.7348 20.8946 11.4804 20.7071 11.2929L13.7072 4.29301C13.5196 4.10536 13.2652 4 13 4C12.7348 4 12.4804 4.10536 12.2929 4.29289C12.1054 4.48043 12 4.73478 12 5C12 5.26522 12.1054 5.51957 12.2929 5.70711L19.2924 12.7066Z" fill="#1C1C1C"/>
</svg>
