<svg width="17" height="22" viewBox="0 0 17 22" fill="none" xmlns="http://www.w3.org/2000/svg">
<path fill-rule="evenodd" clip-rule="evenodd" d="M16.2129 10.7816L6.15045 21.0941C6.02038 21.2274 5.84028 21.3058 5.64977 21.3121C5.45926 21.3184 5.27394 21.252 5.13458 21.1276C4.95247 20.965 4.87135 20.7238 4.92021 20.4902L6.23784 14.1885L1.06013 12.3312C0.881643 12.2672 0.737055 12.138 0.658174 11.972C0.579293 11.806 0.572581 11.6168 0.639514 11.4461C0.672609 11.3617 0.722741 11.2843 0.787054 11.2184L10.8496 0.905909C11.1204 0.62833 11.5752 0.613329 11.8654 0.872402C12.0475 1.03499 12.1286 1.27618 12.0798 1.50983L10.7622 7.81155L15.9399 9.66878C16.1184 9.7328 16.2629 9.86202 16.3418 10.028C16.4207 10.194 16.4274 10.3832 16.3605 10.5539C16.3274 10.6383 16.2773 10.7157 16.2129 10.7816ZM6.82603 18.3865L14.4285 10.5952L9.68513 8.89373C9.35519 8.77538 9.1636 8.44569 9.23271 8.11517L10.174 3.61346L2.57148 11.4048L7.31487 13.1063C7.64481 13.2246 7.8364 13.5543 7.76729 13.8848L6.82603 18.3865Z" fill="white"/>
</svg>
