<svg width="52" height="64" viewBox="0 0 52 64" fill="none" xmlns="http://www.w3.org/2000/svg">
<path d="M39.6587 64H4.7969C2.4979 64 0.634277 62.1363 0.634277 59.8373V29.1382C0.634277 26.8392 2.4979 24.9756 4.7969 24.9756H35.496C37.795 24.9756 39.6587 26.8392 39.6587 29.1382V64Z" fill="#056C5F"/>
<g opacity="0.2">
<path opacity="0.4" d="M35.4958 24.9756H30.2926C32.5916 24.9756 34.4552 26.8392 34.4552 29.1382V35.2252C34.4552 36.4153 33.7792 37.5033 32.7101 38.0261C27.4321 40.6071 23.7886 46.0323 23.7886 52.2926C23.7886 56.923 25.7822 61.0962 28.9558 64H39.6584V29.1382C39.6584 26.8392 37.7948 24.9756 35.4958 24.9756Z" fill="#E8EDFB"/>
</g>
<path d="M6.5083 13.6381V24.9756H11.9717V13.6381C11.9717 9.12337 15.6315 5.4635 20.1463 5.4635C24.6611 5.4635 28.3209 9.12337 28.3209 13.6381V24.9756H33.7843V13.6381C33.7844 6.106 27.6786 0 20.1464 0C12.6143 0 6.5083 6.106 6.5083 13.6381Z" fill="#E9E9E9"/>
<g opacity="0.3">
<path d="M6.5083 20.813H11.9717V24.9756H6.5083V20.813Z" fill="#A5A5A5"/>
</g>
<g opacity="0.3">
<path d="M28.3213 20.813H33.7847V24.9756H28.3213V20.813Z" fill="#A5A5A5"/>
</g>
<path d="M39.6585 64C46.1244 64 51.3659 58.7584 51.3659 52.2926C51.3659 45.8268 46.1244 40.5852 39.6585 40.5852C33.1927 40.5852 27.9512 45.8268 27.9512 52.2926C27.9512 58.7584 33.1927 64 39.6585 64Z" fill="#FF7272"/>
<path opacity="0.2" d="M45.776 42.3094C46.8693 44.0898 47.5002 46.1846 47.5002 48.4269C47.5002 54.8927 42.2587 60.1343 35.7928 60.1343C33.5504 60.1343 31.4557 59.5034 29.6753 58.4102C31.7345 61.7633 35.4352 63.9999 39.6585 63.9999C46.1243 63.9999 51.3659 58.7584 51.3659 52.2926C51.3659 48.0692 49.1292 44.3686 45.776 42.3094Z" fill="#FF3636"/>
<path d="M24.3091 40.0015C24.3091 37.7025 22.4455 35.8389 20.1465 35.8389C17.8475 35.8389 15.9839 37.7025 15.9839 40.0015C15.9839 41.542 16.8214 42.886 18.0651 43.6059V51.0555C18.0651 52.205 18.997 53.1367 20.1464 53.1367C21.2959 53.1367 22.2276 52.2049 22.2276 51.0555V43.6059C23.4716 42.886 24.3091 41.542 24.3091 40.0015Z" fill="white"/>
<path d="M39.6589 56.9156C39.141 56.9156 38.7214 56.4958 38.7214 55.9781V52.9418C38.7214 52.424 39.141 52.0043 39.6589 52.0043C40.5472 52.0043 41.374 51.6489 41.9866 51.0037C42.5989 50.3588 42.9107 49.513 42.8644 48.6222C42.7779 46.9527 41.399 45.6186 39.7255 45.5848C38.1035 45.5538 36.7037 46.7388 36.4796 48.3453C36.4591 48.4923 36.4487 48.6434 36.4487 48.7942C36.4487 49.3119 36.0291 49.7317 35.5112 49.7317C34.9934 49.7317 34.5737 49.3119 34.5737 48.7942C34.5737 48.557 34.5902 48.3188 34.6227 48.0862C34.9782 45.5394 37.1881 43.6609 39.7634 43.7102C42.415 43.7635 44.5996 45.8786 44.737 48.5251C44.8101 49.9344 44.3162 51.2732 43.3464 52.2947C42.5956 53.0854 41.6417 53.6012 40.5964 53.7942V55.9782C40.5964 56.4958 40.1766 56.9156 39.6589 56.9156Z" fill="white"/>
<path d="M39.6587 60.8762C40.1765 60.8762 40.5962 60.4565 40.5962 59.9387C40.5962 59.421 40.1765 59.0012 39.6587 59.0012C39.1409 59.0012 38.7212 59.421 38.7212 59.9387C38.7212 60.4565 39.1409 60.8762 39.6587 60.8762Z" fill="white"/>
</svg>
