<svg width="24" height="24" viewBox="0 0 24 24" fill="none" xmlns="http://www.w3.org/2000/svg">
<path fill-rule="evenodd" clip-rule="evenodd" d="M2.25 4.5C2.25 3.25736 3.25736 2.25 4.5 2.25H19.5C20.7427 2.25 21.75 3.25737 21.75 4.5V19.5C21.75 20.7427 20.7427 21.75 19.5 21.75H4.5C3.25737 21.75 2.25 20.7427 2.25 19.5V4.5ZM4.5 3.75C4.08579 3.75 3.75 4.08579 3.75 4.5V19.5C3.75 19.9142 4.08578 20.25 4.5 20.25H19.5C19.9142 20.25 20.25 19.9142 20.25 19.5V4.5C20.25 4.08578 19.9142 3.75 19.5 3.75H4.5Z" fill="#848688"/>
<path fill-rule="evenodd" clip-rule="evenodd" d="M5.75 9C5.75 7.20509 7.20509 5.75 9 5.75C10.7949 5.75 12.25 7.20509 12.25 9C12.25 10.7949 10.7949 12.25 9 12.25C7.20509 12.25 5.75 10.7949 5.75 9ZM9 7.25C8.03351 7.25 7.25 8.03351 7.25 9C7.25 9.96649 8.03351 10.75 9 10.75C9.96649 10.75 10.75 9.96649 10.75 9C10.75 8.03351 9.96649 7.25 9 7.25Z" fill="#848688"/>
<path fill-rule="evenodd" clip-rule="evenodd" d="M14.9983 12.4425C15.2846 12.1849 15.7195 12.186 16.0045 12.445L21.5045 17.445C21.811 17.7237 21.8336 18.198 21.555 18.5045C21.2763 18.811 20.802 18.8336 20.4955 18.555L15.4975 14.0113L11.0017 18.0575C10.7217 18.3095 10.298 18.3147 10.0119 18.0694L6.96871 15.461L3.45001 18.1C3.11864 18.3485 2.64854 18.2814 2.40001 17.95C2.15149 17.6186 2.21864 17.1485 2.55001 16.9L6.55001 13.9C6.83123 13.6891 7.22121 13.7018 7.48811 13.9306L10.4879 16.5018L14.9983 12.4425Z" fill="#848688"/>
</svg>
