<svg width="32" height="32" viewBox="0 0 32 32" fill="none" xmlns="http://www.w3.org/2000/svg">
<path fill-rule="evenodd" clip-rule="evenodd" d="M3 11C3 11 3 10.1716 3.58579 9.58579C3.58579 9.58579 4.17157 9 5 9H27C27 9 27.8284 9 28.4142 9.58579C28.4142 9.58579 29 10.1716 29 11V15C29 15 29 15.8284 28.4142 16.4142C28.4142 16.4142 27.8284 17 27 17H5C5 17 4.17157 17 3.58579 16.4142C3.58579 16.4142 3 15.8284 3 15V11ZM5 11V15H27V11H5Z" fill="#8B97A8"/>
<path d="M7 25V16C7 15.4477 6.55228 15 6 15C5.44772 15 5 15.4477 5 16V25C5 25.8284 5.58579 26.4142 5.58579 26.4142C6.17157 27 7 27 7 27H25C25.8284 27 26.4142 26.4142 26.4142 26.4142C27 25.8284 27 25 27 25V16C27 15.4477 26.5523 15 26 15C25.4477 15 25 15.4477 25 16V25H7Z" fill="#8B97A8"/>
<path d="M15 10V26C15 26.5523 15.4477 27 16 27C16.5523 27 17 26.5523 17 26V10C17 9.44772 16.5523 9 16 9C15.4477 9 15 9.44772 15 10Z" fill="#8B97A8"/>
<path fill-rule="evenodd" clip-rule="evenodd" d="M18.4381 10.8134C18.4381 10.8134 21.2408 10.4135 22.3665 9.29769L22.3697 9.29452L22.3704 9.29379C22.3704 9.29379 23.5427 8.12093 23.5427 6.46248C23.5427 6.46248 23.5427 4.80347 22.3696 3.63037C22.3696 3.63037 21.1965 2.45728 19.5375 2.45728C19.5375 2.45728 17.8785 2.45728 16.7054 3.63037C16.7054 3.63037 15.5865 4.75919 15.1866 7.56186C15.1866 7.56186 15 8.86962 15 9.99998C15 10.2652 15.1054 10.5195 15.2929 10.7071C15.4804 10.8946 15.7348 11 16 11C16 11 17.1304 11 18.4381 10.8134ZM21.5427 6.46248C21.5427 6.46248 21.5427 7.29188 20.9571 7.87871C20.9571 7.87871 20.3006 8.52741 18.1556 8.83344C18.1556 8.83344 17.577 8.916 17.0424 8.95762C17.0424 8.95762 17.084 8.42296 17.1665 7.84435C17.1665 7.84435 17.4729 5.69702 18.1196 5.04459C18.1196 5.04459 18.7069 4.45728 19.5375 4.45728C19.5375 4.45728 20.3681 4.45728 20.9554 5.04459C20.9554 5.04459 21.5427 5.6319 21.5427 6.46248Z" fill="#8B97A8"/>
<path d="M9.62981 9.29395L9.6302 9.29434L9.63086 9.295L9.62981 9.29395Z" fill="#8B97A8"/>
<path d="M26 16V25C26 25.2651 25.8946 25.5195 25.7071 25.707C25.5196 25.8945 25.2652 26 25 26H7C6.73479 26 6.48043 25.8945 6.29289 25.707C6.10535 25.5195 6 25.2651 6 25V16H26Z" fill="black" fill-opacity="0.1"/>
<path fill-rule="evenodd" clip-rule="evenodd" d="M16.4007 6.10609C16.4007 6.10609 15.9762 3.30705 14.8505 2.19123L14.8473 2.18807L14.8465 2.18734C14.8465 2.18734 13.6634 1.02542 12.005 1.04003C12.005 1.04003 10.3461 1.05464 9.18333 2.23802C9.18333 2.23802 8.02062 3.42141 8.03523 5.08035C8.03523 5.08035 8.04984 6.7393 9.23323 7.90202C9.23323 7.90202 10.3719 9.01096 13.1779 9.38613C13.1779 9.38613 14.4873 9.56119 15.6176 9.55124C15.8828 9.5489 16.1362 9.44131 16.3221 9.25213C16.508 9.06295 16.6111 8.80768 16.6088 8.54247C16.6088 8.54247 16.5988 7.41216 16.4007 6.10609ZM12.0226 3.03995C12.0226 3.03995 12.852 3.03264 13.4439 3.6131C13.4439 3.6131 14.0984 4.26384 14.4233 6.40601C14.4233 6.40601 14.511 6.98387 14.5573 7.51815C14.5573 7.51815 14.0223 7.48123 13.443 7.40377C13.443 7.40377 11.293 7.11632 10.6349 6.4754C10.6349 6.4754 10.0425 5.89329 10.0352 5.06274C10.0352 5.06274 10.0278 4.23219 10.6099 3.63972C10.6099 3.63972 11.1921 3.04726 12.0226 3.03995Z" fill="#8B97A8"/>
</svg>
