<svg width="24" height="24" viewBox="0 0 24 24" fill="none" xmlns="http://www.w3.org/2000/svg">
<path fill-rule="evenodd" clip-rule="evenodd" d="M8.5 16.2251C8.91421 16.2251 9.25 16.5609 9.25 16.9751V21.0551C9.25 21.4693 8.91421 21.8051 8.5 21.8051C8.08579 21.8051 7.75 21.4693 7.75 21.0551V16.9751C7.75 16.5609 8.08579 16.2251 8.5 16.2251Z" fill="#291C6D"/>
<path fill-rule="evenodd" clip-rule="evenodd" d="M4.5 19.25C4.91421 19.25 5.25 19.5858 5.25 20V21.0278C5.25 21.442 4.91421 21.7778 4.5 21.7778C4.08579 21.7778 3.75 21.442 3.75 21.0278V20C3.75 19.5858 4.08579 19.25 4.5 19.25Z" fill="#291C6D"/>
<path fill-rule="evenodd" clip-rule="evenodd" d="M12.5 12.75C12.9142 12.75 13.25 13.0858 13.25 13.5V21.0357C13.25 21.4499 12.9142 21.7857 12.5 21.7857C12.0858 21.7857 11.75 21.4499 11.75 21.0357V13.5C11.75 13.0858 12.0858 12.75 12.5 12.75Z" fill="#291C6D"/>
<path fill-rule="evenodd" clip-rule="evenodd" d="M16.5 8.73071C16.9142 8.73071 17.25 9.0665 17.25 9.48071V21.0439C17.25 21.4581 16.9142 21.7939 16.5 21.7939C16.0858 21.7939 15.75 21.4581 15.75 21.0439V9.48071C15.75 9.0665 16.0858 8.73071 16.5 8.73071Z" fill="#291C6D"/>
<path fill-rule="evenodd" clip-rule="evenodd" d="M20.5 4.73535C20.9142 4.73535 21.25 5.07114 21.25 5.48535V21.0417C21.25 21.4559 20.9142 21.7917 20.5 21.7917C20.0858 21.7917 19.75 21.4559 19.75 21.0417V5.48535C19.75 5.07114 20.0858 4.73535 20.5 4.73535Z" fill="#291C6D"/>
<path fill-rule="evenodd" clip-rule="evenodd" d="M17.5303 2.46967C17.8232 2.76256 17.8232 3.23744 17.5303 3.53033L4.03033 17.0303C3.73744 17.3232 3.26256 17.3232 2.96967 17.0303C2.67678 16.7374 2.67678 16.2626 2.96967 15.9697L16.4697 2.46967C16.7626 2.17678 17.2374 2.17678 17.5303 2.46967Z" fill="#291C6D"/>
<path fill-rule="evenodd" clip-rule="evenodd" d="M11 3C11 2.58579 11.3358 2.25 11.75 2.25H17C17.4142 2.25 17.75 2.58579 17.75 3C17.75 3.41421 17.4142 3.75 17 3.75H11.75C11.3358 3.75 11 3.41421 11 3Z" fill="#291C6D"/>
</svg>
