<svg width="16" height="18" viewBox="0 0 16 18" fill="none" xmlns="http://www.w3.org/2000/svg">
<path fill-rule="evenodd" clip-rule="evenodd" d="M3.76486 11.9488C3.84421 12.2298 3.69412 12.526 3.42962 12.6103C2.85241 12.7943 2.42172 13.0028 2.14649 13.2102C1.85827 13.4274 1.83333 13.5682 1.83333 13.604C1.83333 13.6399 1.85828 13.7807 2.14649 13.9979C2.42172 14.2053 2.85241 14.4138 3.42962 14.5978C4.57769 14.9637 6.19369 15.1978 8 15.1978C9.8063 15.1978 11.4223 14.9637 12.5704 14.5978C13.1476 14.4138 13.5783 14.2053 13.8535 13.9979C14.1417 13.7807 14.1667 13.6399 14.1667 13.604C14.1667 13.5682 14.1417 13.4274 13.8535 13.2102C13.5783 13.0028 13.1476 12.7943 12.5704 12.6103C12.3059 12.526 12.1558 12.2298 12.2351 11.9488C12.3145 11.6678 12.5932 11.5083 12.8577 11.5926C13.4869 11.7932 14.0325 12.0425 14.432 12.3436C14.8185 12.6349 15.1667 13.0531 15.1667 13.604C15.1667 14.155 14.8185 14.5732 14.432 14.8645C14.0325 15.1656 13.4869 15.4149 12.8577 15.6155C11.5929 16.0186 9.87559 16.2603 8 16.2603C6.1244 16.2603 4.40707 16.0186 3.14228 15.6155C2.51306 15.4149 1.96744 15.1656 1.56796 14.8645C1.18147 14.5732 0.833328 14.155 0.833328 13.604C0.833328 13.0531 1.18148 12.6349 1.56796 12.3436C1.96744 12.0425 2.51306 11.7932 3.14227 11.5926C3.40677 11.5083 3.68551 11.6678 3.76486 11.9488Z" fill="#1C1B1E"/>
<path fill-rule="evenodd" clip-rule="evenodd" d="M3.16667 6.40822C3.16667 3.62191 5.34238 1.3855 8 1.3855C10.6576 1.3855 12.8333 3.62191 12.8333 6.40822C12.8333 8.36631 11.6272 10.1193 10.5256 11.3264C9.96367 11.9422 9.40351 12.4434 8.98447 12.7904C8.77455 12.9643 8.59901 13.1003 8.47499 13.1935C8.41295 13.2401 8.36373 13.2761 8.32946 13.3008C8.31233 13.3132 8.29892 13.3227 8.28951 13.3294L8.27843 13.3372L8.2752 13.3395L8.27417 13.3402L8.27381 13.3404C8.27366 13.3405 8.27354 13.3406 8 12.8959C7.72647 13.3406 7.72635 13.3405 7.7262 13.3404L7.72584 13.3402L7.72481 13.3395L7.72158 13.3372L7.7105 13.3294C7.70109 13.3227 7.68768 13.3132 7.67055 13.3008C7.63628 13.2761 7.58706 13.2401 7.52502 13.1935C7.401 13.1003 7.22546 12.9643 7.01554 12.7904C6.5965 12.4434 6.03634 11.9422 5.47438 11.3264C4.3728 10.1193 3.16667 8.36631 3.16667 6.40822ZM8 12.8959L7.72647 13.3406C7.89266 13.456 8.10735 13.456 8.27354 13.3406L8 12.8959ZM8 12.2481C8.10122 12.1701 8.22661 12.0709 8.3697 11.9524C8.76317 11.6265 9.28633 11.1581 9.80771 10.5868C10.8728 9.41966 11.8333 7.92882 11.8333 6.40822C11.8333 4.23338 10.1288 2.448 8 2.448C5.87116 2.448 4.16667 4.23338 4.16667 6.40822C4.16667 7.92882 5.12721 9.41966 6.1923 10.5868C6.71367 11.1581 7.23684 11.6265 7.63031 11.9524C7.7734 12.0709 7.89879 12.1701 8 12.2481Z" fill="#1C1B1E"/>
<path fill-rule="evenodd" clip-rule="evenodd" d="M5.83333 6.52083C5.83333 5.24944 6.80339 4.21875 7.99999 4.21875C9.1966 4.21875 10.1667 5.24944 10.1667 6.52083C10.1667 7.79223 9.1966 8.82292 7.99999 8.82292C6.80339 8.82292 5.83333 7.79223 5.83333 6.52083ZM7.99999 5.28125C7.35567 5.28125 6.83333 5.83624 6.83333 6.52083C6.83333 7.20543 7.35567 7.76042 7.99999 7.76042C8.64432 7.76042 9.16666 7.20543 9.16666 6.52083C9.16666 5.83624 8.64432 5.28125 7.99999 5.28125Z" fill="#1C1B1E"/>
</svg>
