<svg width="24" height="22" viewBox="0 0 24 22" fill="none" xmlns="http://www.w3.org/2000/svg">
<path d="M20.25 17.875V11.9968C20.25 11.6171 19.9142 11.3093 19.5 11.3093C19.0858 11.3093 18.75 11.6171 18.75 11.9968V17.875H5.25V11.9968C5.25 11.6171 4.91421 11.3093 4.5 11.3093C4.08579 11.3093 3.75 11.6171 3.75 11.9968V17.875C3.75 18.4445 4.18934 18.8472 4.18934 18.8472C4.62868 19.25 5.25 19.25 5.25 19.25H18.75C19.3713 19.25 19.8107 18.8472 19.8107 18.8472C20.25 18.4445 20.25 17.875 20.25 17.875Z" fill="#1C1C1C"/>
<path fill-rule="evenodd" clip-rule="evenodd" d="M18.9437 2.75002L5.06268 2.75L5.05634 2.75002C5.05634 2.75002 4.55838 2.75378 4.16063 3.02842C4.16063 3.02842 3.76288 3.30306 3.6215 3.74075L2.2787 8.06165C2.16523 8.42682 2.39617 8.80717 2.79454 8.9112C2.86137 8.92865 2.93052 8.9375 3.00001 8.9375H21C21.4142 8.9375 21.75 8.6297 21.75 8.25C21.75 8.1863 21.7404 8.12291 21.7213 8.06165L20.3807 3.74759C20.3807 3.74759 20.2371 3.30306 19.8394 3.02842C19.8394 3.02842 19.4416 2.75378 18.9437 2.75002ZM5.06312 4.12671C5.06312 4.12671 5.06533 4.12518 5.06804 4.125L18.9313 4.12498C18.9313 4.12498 18.9344 4.125 18.9369 4.12671L18.9382 4.12715C18.9382 4.12715 18.9389 4.12682 18.9381 4.12436L20.0065 7.5625H3.99348L5.05977 4.13113C5.05977 4.13113 5.06065 4.12841 5.06312 4.12671Z" fill="#1C1C1C"/>
<path d="M4.40901 11.0834C3.75 10.4793 3.75 9.625 3.75 9.625V8.25C3.75 7.8703 3.41421 7.5625 3 7.5625C2.58579 7.5625 2.25 7.8703 2.25 8.25V9.625C2.25 11.0489 3.34835 12.0557 3.34835 12.0557C4.4467 13.0625 6 13.0625 6 13.0625C7.5533 13.0625 8.65165 12.0557 8.65165 12.0557C9.75 11.0489 9.75 9.625 9.75 9.625V8.25C9.75 7.8703 9.41421 7.5625 9 7.5625C8.58579 7.5625 8.25 7.8703 8.25 8.25V9.625C8.25 10.4793 7.59099 11.0834 7.59099 11.0834C6.93198 11.6875 6 11.6875 6 11.6875C5.06802 11.6875 4.40901 11.0834 4.40901 11.0834Z" fill="#1C1C1C"/>
<path d="M10.409 11.0834C9.75 10.4793 9.75 9.625 9.75 9.625V8.25C9.75 7.8703 9.41421 7.5625 9 7.5625C8.58579 7.5625 8.25 7.8703 8.25 8.25V9.625C8.25 11.0489 9.34835 12.0557 9.34835 12.0557C10.4467 13.0625 12 13.0625 12 13.0625C13.5533 13.0625 14.6517 12.0557 14.6517 12.0557C15.75 11.0489 15.75 9.625 15.75 9.625V8.25C15.75 7.8703 15.4142 7.5625 15 7.5625C14.5858 7.5625 14.25 7.8703 14.25 8.25V9.625C14.25 10.4793 13.591 11.0834 13.591 11.0834C12.932 11.6875 12 11.6875 12 11.6875C11.068 11.6875 10.409 11.0834 10.409 11.0834Z" fill="#1C1C1C"/>
<path d="M16.409 11.0834C15.75 10.4793 15.75 9.625 15.75 9.625V8.25C15.75 7.8703 15.4142 7.5625 15 7.5625C14.5858 7.5625 14.25 7.8703 14.25 8.25V9.625C14.25 11.0489 15.3483 12.0557 15.3483 12.0557C16.4467 13.0625 18 13.0625 18 13.0625C19.5533 13.0625 20.6516 12.0557 20.6516 12.0557C21.75 11.0489 21.75 9.625 21.75 9.625L21.75 8.25C21.75 7.8703 21.4142 7.5625 21 7.5625C20.5858 7.5625 20.25 7.8703 20.25 8.25V9.625C20.25 10.4793 19.591 11.0834 19.591 11.0834C18.932 11.6875 18 11.6875 18 11.6875C17.068 11.6875 16.409 11.0834 16.409 11.0834Z" fill="#1C1C1C"/>
</svg>
