<svg width="24" height="24" viewBox="0 0 24 24" fill="none" xmlns="http://www.w3.org/2000/svg">
<path fill-rule="evenodd" clip-rule="evenodd" d="M7.125 3C7.125 3 8.83363 3 10.0418 4.20818C10.0418 4.20818 11.25 5.41637 11.25 7.125C11.25 7.125 11.25 8.83363 10.0418 10.0418C10.0418 10.0418 8.83363 11.25 7.125 11.25C7.125 11.25 5.41637 11.25 4.20818 10.0418C4.20818 10.0418 3 8.83363 3 7.125C3 7.125 3 5.41637 4.20818 4.20818C4.20818 4.20818 5.41637 3 7.125 3ZM7.125 4.5C7.125 4.5 6.03769 4.5 5.26884 5.26884C5.26884 5.26884 4.5 6.03769 4.5 7.125C4.5 7.125 4.5 8.21231 5.26884 8.98116C5.26884 8.98116 6.03769 9.75 7.125 9.75C7.125 9.75 8.21231 9.75 8.98116 8.98116C8.98116 8.98116 9.75 8.21231 9.75 7.125C9.75 7.125 9.75 6.03769 8.98116 5.26884C8.98116 5.26884 8.21231 4.5 7.125 4.5Z" fill="#EB4335"/>
<path fill-rule="evenodd" clip-rule="evenodd" d="M16.875 3C16.875 3 18.5836 3 19.7918 4.20818C19.7918 4.20818 21 5.41637 21 7.125C21 7.125 21 8.83363 19.7918 10.0418C19.7918 10.0418 18.5836 11.25 16.875 11.25C16.875 11.25 15.1664 11.25 13.9582 10.0418C13.9582 10.0418 12.75 8.83363 12.75 7.125C12.75 7.125 12.75 5.41637 13.9582 4.20818C13.9582 4.20818 15.1664 3 16.875 3ZM16.875 4.5C16.875 4.5 15.7877 4.5 15.0188 5.26884C15.0188 5.26884 14.25 6.03769 14.25 7.125C14.25 7.125 14.25 8.21231 15.0188 8.98116C15.0188 8.98116 15.7877 9.75 16.875 9.75C16.875 9.75 17.9623 9.75 18.7312 8.98116C18.7312 8.98116 19.5 8.21231 19.5 7.125C19.5 7.125 19.5 6.03769 18.7312 5.26884C18.7312 5.26884 17.9623 4.5 16.875 4.5Z" fill="#EB4335"/>
<path fill-rule="evenodd" clip-rule="evenodd" d="M7.125 12.75C7.125 12.75 8.83363 12.75 10.0418 13.9582C10.0418 13.9582 11.25 15.1664 11.25 16.875C11.25 16.875 11.25 18.5836 10.0418 19.7918C10.0418 19.7918 8.83363 21 7.125 21C7.125 21 5.41637 21 4.20818 19.7918C4.20818 19.7918 3 18.5836 3 16.875C3 16.875 3 15.1664 4.20818 13.9582C4.20818 13.9582 5.41637 12.75 7.125 12.75ZM7.125 14.25C7.125 14.25 6.03769 14.25 5.26884 15.0188C5.26884 15.0188 4.5 15.7877 4.5 16.875C4.5 16.875 4.5 17.9623 5.26884 18.7312C5.26884 18.7312 6.03769 19.5 7.125 19.5C7.125 19.5 8.21231 19.5 8.98116 18.7312C8.98116 18.7312 9.75 17.9623 9.75 16.875C9.75 16.875 9.75 15.7877 8.98116 15.0188C8.98116 15.0188 8.21231 14.25 7.125 14.25Z" fill="#EB4335"/>
<path d="M16.125 14.25V19.5C16.125 19.9142 16.4608 20.25 16.875 20.25C17.2892 20.25 17.625 19.9142 17.625 19.5V14.25C17.625 13.8358 17.2892 13.5 16.875 13.5C16.4608 13.5 16.125 13.8358 16.125 14.25Z" fill="#EB4335"/>
<path d="M19.5 16.125H14.25C13.8358 16.125 13.5 16.4608 13.5 16.875C13.5 17.2892 13.8358 17.625 14.25 17.625H19.5C19.9142 17.625 20.25 17.2892 20.25 16.875C20.25 16.4608 19.9142 16.125 19.5 16.125Z" fill="#EB4335"/>
</svg>
