<svg width="22" height="18" viewBox="0 0 22 18" fill="none" xmlns="http://www.w3.org/2000/svg">
<path d="M11.0001 3.47708C14.4742 3.47708 17.5726 5.42958 19.0851 8.51875C18.5442 9.63708 17.7834 10.5996 16.8759 11.3787L18.1684 12.6712C19.4426 11.5437 20.4509 10.1321 21.0834 8.51875C19.4976 4.49458 15.5834 1.64375 11.0001 1.64375C9.83592 1.64375 8.71758 1.82708 7.66341 2.16625L9.17592 3.67875C9.77175 3.55958 10.3767 3.47708 11.0001 3.47708ZM10.0192 4.52208L11.9167 6.41958C12.4392 6.64875 12.8609 7.07042 13.0901 7.59291L14.9876 9.49042C15.0609 9.17875 15.1159 8.84875 15.1159 8.50958C15.1251 6.23625 13.2734 4.39375 11.0001 4.39375C10.6609 4.39375 10.3401 4.43958 10.0192 4.52208ZM1.84258 1.52458L4.29925 3.98125C2.80508 5.15458 1.62258 6.71291 0.916748 8.51875C2.50258 12.5429 6.41675 15.3937 11.0001 15.3937C12.3934 15.3937 13.7317 15.1279 14.9601 14.6421L18.0951 17.7771L19.3876 16.4846L3.13508 0.222916L1.84258 1.52458ZM8.71758 8.39958L11.1101 10.7921C11.0734 10.8012 11.0367 10.8104 11.0001 10.8104C9.73508 10.8104 8.70842 9.78375 8.70842 8.51875C8.70842 8.47291 8.71758 8.44541 8.71758 8.39958ZM5.60092 5.28291L7.20508 6.88708C6.99425 7.39125 6.87508 7.94125 6.87508 8.51875C6.87508 10.7921 8.72675 12.6437 11.0001 12.6437C11.5776 12.6437 12.1276 12.5246 12.6226 12.3137L13.5209 13.2121C12.7142 13.4321 11.8709 13.5604 11.0001 13.5604C7.52592 13.5604 4.42758 11.6079 2.91508 8.51875C3.55675 7.20792 4.49175 6.12625 5.60092 5.28291Z" fill="#1F1F1F"/>
</svg>
