<svg width="34" height="34" viewBox="0 0 34 34" fill="none" xmlns="http://www.w3.org/2000/svg">
<path fill-rule="evenodd" clip-rule="evenodd" d="M17 34C26.3888 34 34 26.3888 34 17C34 7.61116 26.3888 0 17 0C7.61116 0 0 7.61116 0 17C0 26.3888 7.61116 34 17 34ZM17 9.15385C17.7222 9.15385 18.3077 9.73932 18.3077 10.4615V15.6923H23.5385C24.2607 15.6923 24.8462 16.2778 24.8462 17C24.8462 17.7222 24.2607 18.3077 23.5385 18.3077H18.3077V23.5385C18.3077 24.2607 17.7222 24.8462 17 24.8462C16.2778 24.8462 15.6923 24.2607 15.6923 23.5385V18.3077H10.4615C9.73932 18.3077 9.15385 17.7222 9.15385 17C9.15385 16.2778 9.73932 15.6923 10.4615 15.6923H15.6923V10.4615C15.6923 9.73932 16.2778 9.15385 17 9.15385Z" fill="#8B97A8"/>
</svg>
