<svg width="18" height="18" viewBox="0 0 18 18" fill="none" xmlns="http://www.w3.org/2000/svg">
<path d="M7.33333 3.33325H13.3333L9.66667 7.99992H14.6667L6.66667 16.6666L8.33333 10.3333H3.66667L7.33333 3.33325Z" fill="#531FBA"/>
<path fill-rule="evenodd" clip-rule="evenodd" d="M6.89042 3.10125C6.97672 2.93649 7.14734 2.83325 7.33333 2.83325H13.3333C13.5247 2.83325 13.6994 2.94253 13.783 3.11468C13.8667 3.28684 13.8447 3.49165 13.7265 3.64216L10.6954 7.49992H14.6667C14.8653 7.49992 15.045 7.61746 15.1247 7.79938C15.2043 7.98131 15.1688 8.19313 15.0341 8.33906L7.03407 17.0057C6.87833 17.1744 6.6277 17.2154 6.42635 17.105C6.225 16.9947 6.1247 16.7614 6.18313 16.5393L7.68473 10.8333H3.66667C3.4917 10.8333 3.32946 10.7418 3.23888 10.5921C3.1483 10.4424 3.14256 10.2562 3.22375 10.1012L6.89042 3.10125ZM7.63587 3.83325L4.49301 9.83325H8.33333C8.48838 9.83325 8.63466 9.90519 8.72933 10.028C8.82399 10.1508 8.85633 10.3106 8.81687 10.4605L7.66121 14.852L13.5247 8.49992H9.66667C9.47526 8.49992 9.30064 8.39064 9.21697 8.21849C9.1333 8.04633 9.15525 7.84152 9.27351 7.69101L12.3046 3.83325H7.63587Z" fill="#531FBA"/>
</svg>
