<svg width="24" height="24" viewBox="0 0 24 24" fill="none" xmlns="http://www.w3.org/2000/svg">
<path fill-rule="evenodd" clip-rule="evenodd" d="M4.5 3.75C4.08579 3.75 3.75 4.08579 3.75 4.5V19.5C3.75 19.9142 4.08578 20.25 4.5 20.25H19.5C19.9142 20.25 20.25 19.9142 20.25 19.5V10C20.25 9.58579 20.5858 9.25 21 9.25C21.4142 9.25 21.75 9.58579 21.75 10V19.5C21.75 20.7427 20.7427 21.75 19.5 21.75H4.5C3.25737 21.75 2.25 20.7427 2.25 19.5V4.5C2.25 3.25736 3.25736 2.25 4.5 2.25H15C15.4142 2.25 15.75 2.58579 15.75 3C15.75 3.41421 15.4142 3.75 15 3.75H4.5Z" fill="#056C5F"/>
<path fill-rule="evenodd" clip-rule="evenodd" d="M20.936 2.88976C21.273 3.13051 21.3511 3.59893 21.1103 3.93599L13.6103 14.436C13.4906 14.6036 13.3072 14.7146 13.1031 14.7429C12.8991 14.7713 12.6924 14.7144 12.5315 14.5857L7.53151 10.5857C7.20806 10.327 7.15562 9.85498 7.41438 9.53154C7.67313 9.20809 8.1451 9.15565 8.46855 9.41441L12.8501 12.9196L19.8897 3.06413C20.1305 2.72707 20.5989 2.649 20.936 2.88976Z" fill="#056C5F"/>
</svg>
