<svg width="22" height="22" viewBox="0 0 22 22" fill="none" xmlns="http://www.w3.org/2000/svg">
<path d="M10.9998 5.47708C14.474 5.47708 17.5723 7.42958 19.0848 10.5187C18.544 11.6371 17.7832 12.5996 16.8757 13.3787L18.1682 14.6712C19.4423 13.5437 20.4507 12.1321 21.0832 10.5187C19.4973 6.49458 15.5832 3.64375 10.9998 3.64375C9.83567 3.64375 8.71734 3.82708 7.66317 4.16625L9.17567 5.67875C9.7715 5.55958 10.3765 5.47708 10.9998 5.47708ZM10.019 6.52208L11.9165 8.41958C12.439 8.64875 12.8607 9.07042 13.0898 9.59291L14.9873 11.4904C15.0607 11.1787 15.1157 10.8487 15.1157 10.5096C15.1248 8.23625 13.2732 6.39375 10.9998 6.39375C10.6607 6.39375 10.3398 6.43958 10.019 6.52208ZM1.84234 3.52458L4.299 5.98125C2.80484 7.15458 1.62234 8.71291 0.916504 10.5187C2.50234 14.5429 6.4165 17.3937 10.9998 17.3937C12.3932 17.3937 13.7315 17.1279 14.9598 16.6421L18.0948 19.7771L19.3873 18.4846L3.13484 2.22292L1.84234 3.52458ZM8.71734 10.3996L11.1098 12.7921C11.0732 12.8012 11.0365 12.8104 10.9998 12.8104C9.73484 12.8104 8.70817 11.7837 8.70817 10.5187C8.70817 10.4729 8.71734 10.4454 8.71734 10.3996ZM5.60067 7.28291L7.20484 8.88708C6.994 9.39125 6.87484 9.94125 6.87484 10.5187C6.87484 12.7921 8.7265 14.6437 10.9998 14.6437C11.5773 14.6437 12.1273 14.5246 12.6223 14.3137L13.5207 15.2121C12.714 15.4321 11.8707 15.5604 10.9998 15.5604C7.52567 15.5604 4.42734 13.6079 2.91484 10.5187C3.5565 9.20792 4.4915 8.12625 5.60067 7.28291Z" fill="#1F1F1F"/>
</svg>
