<svg width="24" height="24" viewBox="0 0 24 24" fill="none" xmlns="http://www.w3.org/2000/svg">
<path fill-rule="evenodd" clip-rule="evenodd" d="M2.25 4.5C2.25 3.25736 3.25736 2.25 4.5 2.25H19.5C20.7427 2.25 21.75 3.25737 21.75 4.5V19.5C21.75 20.7427 20.7427 21.75 19.5 21.75H4.5C3.25737 21.75 2.25 20.7427 2.25 19.5V4.5ZM4.5 3.75C4.08579 3.75 3.75 4.08579 3.75 4.5V19.5C3.75 19.9142 4.08578 20.25 4.5 20.25H19.5C19.9142 20.25 20.25 19.9142 20.25 19.5V4.5C20.25 4.08578 19.9142 3.75 19.5 3.75H4.5Z" fill="#1C1B1E"/>
<path fill-rule="evenodd" clip-rule="evenodd" d="M6.75 10.5C6.75 10.0858 7.08579 9.75 7.5 9.75H16.5C16.9142 9.75 17.25 10.0858 17.25 10.5C17.25 10.9142 16.9142 11.25 16.5 11.25H7.5C7.08579 11.25 6.75 10.9142 6.75 10.5Z" fill="#1C1B1E"/>
<path fill-rule="evenodd" clip-rule="evenodd" d="M6.75 13.5C6.75 13.0858 7.08579 12.75 7.5 12.75H16.5C16.9142 12.75 17.25 13.0858 17.25 13.5C17.25 13.9142 16.9142 14.25 16.5 14.25H7.5C7.08579 14.25 6.75 13.9142 6.75 13.5Z" fill="#1C1B1E"/>
<path fill-rule="evenodd" clip-rule="evenodd" d="M12.4697 6.46967C12.7626 6.17678 13.2374 6.17678 13.5303 6.46967L17.0303 9.96967C17.3232 10.2626 17.3232 10.7374 17.0303 11.0303C16.7374 11.3232 16.2626 11.3232 15.9697 11.0303L12.4697 7.53033C12.1768 7.23744 12.1768 6.76256 12.4697 6.46967Z" fill="#1C1B1E"/>
<path fill-rule="evenodd" clip-rule="evenodd" d="M6.96967 12.9697C7.26256 12.6768 7.73744 12.6768 8.03033 12.9697L11.5303 16.4697C11.8232 16.7626 11.8232 17.2374 11.5303 17.5303C11.2374 17.8232 10.7626 17.8232 10.4697 17.5303L6.96967 14.0303C6.67678 13.7374 6.67678 13.2626 6.96967 12.9697Z" fill="#1C1B1E"/>
</svg>
